<svg width="740" height="740" viewBox="0 0 740 740" fill="none" xmlns="http://www.w3.org/2000/svg">
<path d="M523.391 395.799C525.234 386.159 527.756 376.634 529.573 366.947C534.834 338.902 538.766 308.676 536.088 280.154C534.954 268.064 531.853 252.31 529.313 240.189C526.011 224.422 520.775 205.412 511.688 191.986C505.151 182.33 495.562 175.992 483.696 173.818C462.507 169.935 424.25 175.435 409.385 156.531C405.237 151.256 404.915 142.864 406.238 136.503C408.705 124.634 413.58 112.791 423.878 105.675C438.735 95.5221 459.288 94.8829 476.469 98.3781C513.194 105.85 548.702 126.509 570.505 157.4C583.509 175.823 585.106 191.08 587.451 212.586C592.871 261.213 591.035 310.375 582.009 358.464C578.367 377.396 574.385 390.455 568.886 408.651C573.413 410.313 578.728 413.54 583.035 415.939C635.302 445.041 642.102 512.978 623.193 564.319C617.542 579.664 608.748 594.876 596.34 605.752C594.305 607.537 586.378 612.065 585.785 612.87C587.075 615.58 593.673 630.915 589.959 632.458C589.243 632.295 589.261 632.36 588.629 632.028C587.032 631.269 576.235 633.856 573.421 634.236C557.938 636.31 542.419 637.05 526.874 638.174C522.896 638.463 509.314 638.698 506.206 639.533C505.115 640.765 505.744 640.472 504.439 640.826C503.547 640.32 503.735 640.487 502.994 639.793C498.365 639.367 493.748 640.172 489.184 639.609C487.728 640.223 486.478 640.96 484.96 640.826L483.475 639.894C482.135 640.425 459.049 640.891 456.159 640.989C435.317 641.726 414.465 642.225 393.609 642.485C358.923 643.186 322.765 644.436 288.255 640.581C284.483 640.158 277.388 639.28 274.026 637.965C273.084 638.489 272.486 638.756 271.513 639.19C270.044 638.965 270.586 639.179 269.396 637.925C269.392 637.531 269.309 637.097 268.859 636.956C265.67 635.945 258.208 633.556 256.143 630.807L254.536 629.34L252.806 627.645L250.951 625.856C248.743 625.567 243.534 625.654 241.418 626.015C240.192 626.915 239.777 626.702 238.565 626.084C235.708 625.51 224.867 625.618 221.747 625.614L219.067 625.665C208.933 625.846 196.649 627.049 188.31 620.234C177.15 611.114 174.719 595.107 184.251 583.856C193.683 572.727 205.732 570.866 219.324 569.428L220.748 568.055C221.061 559.47 220.625 551.553 221.272 542.7C223.284 515.16 228.568 488.801 234.261 461.879C235.866 455.924 237.341 449.033 238.775 442.956C238.687 442.753 238.315 442.092 238.087 442.042C216.294 437.388 193.63 430.569 180.344 411.195C176.819 406.057 174.487 400.857 172.071 395.145C174.683 394.512 182.99 392.778 184.729 391.304C184.921 390.31 185.029 390.758 184.54 389.902C182.252 388.887 173.965 391.691 171.076 392.507C169.839 388.341 169.571 384.923 169.244 380.591C168.008 380.572 167.08 380.666 165.93 380.222C169.346 379.958 183.747 382.206 184.726 379.535C183.278 376.63 172.505 377.83 168.766 377.407L168.458 377.367C169.826 376.771 170.708 365.845 170.959 363.789L172.994 364.41C175.291 363.886 176.442 365.563 178.405 364.566L178.06 363.753L178.403 363.268C177.006 362.611 172.989 361.437 171.33 360.911C172.016 359.657 172.476 357.253 172.808 355.785C178.021 332.745 187.284 311.67 197.405 290.382C196.383 285.878 196.018 281.183 195.531 276.596C193.739 259.733 192.182 237.186 197.652 221.027C199.6 215.271 202.734 209.729 208.474 207.059C225.205 199.276 248.974 223.529 259.122 235.118C260.978 237.238 266.41 244.872 268.399 245.595C305.736 237.391 337.028 239.248 373.057 252.373C386.867 240.443 412.322 221.265 431.133 222.84C434.996 223.163 438.331 224.501 440.824 227.555C451.971 241.203 447.223 283.273 445.066 300.786C444.343 306.639 443.805 312.97 442.284 318.656C442.052 321.328 441.193 325.145 441.106 327.475C441.012 328.159 440.838 329.641 441.015 330.258C445.745 346.811 450.464 363.283 451.978 380.529C452.021 380.995 452.061 380.955 452.285 381.472L483.638 369.216C486.832 367.955 501.068 361.675 503.175 362.947C503.258 364.143 503.355 363.547 502.622 364.728C500.783 365.841 490.712 369.57 488.006 370.629L452.408 384.605C452.415 387.315 452.011 400.063 453.152 401.443L453.756 401.616C459.346 401.128 465.029 400.467 470.641 399.94C473.889 399.365 477.416 398.979 480.707 398.556C494.019 394.606 509.574 394.975 523.391 395.799Z" fill="#FEBD92"/>
<path d="M219.324 569.428C220.933 571.386 226.755 572.347 229.43 573.124C233.494 574.335 237.476 575.802 241.351 577.522C253.669 583.054 264.989 591.118 271.451 603.104C272.334 604.74 273.171 606.609 274.089 608.166C272.523 610.215 260.442 612.726 254.172 619.96C254.786 621.708 255.058 622.109 254.922 623.891C254.251 625.365 253.886 626.431 252.806 627.645L250.951 625.856C248.743 625.567 243.534 625.654 241.418 626.015C240.192 626.915 239.777 626.702 238.565 626.084C235.708 625.51 224.867 625.618 221.747 625.614L219.067 625.665C208.933 625.846 196.649 627.049 188.31 620.234C177.15 611.114 174.719 595.107 184.251 583.856C193.683 572.727 205.732 570.866 219.324 569.428Z" fill="#FEBD92"/>
<path d="M238.565 626.084C238.347 616.718 236.85 609.221 232.458 600.686C231.106 598.059 227.915 595.776 228.764 593.5C229.716 592.827 229.206 592.954 230.338 593.073C238.226 600.892 241.366 615.28 241.418 626.015C240.192 626.915 239.777 626.702 238.565 626.084Z" fill="#431D0B"/>
<path d="M219.067 625.665C218.227 618.493 217.806 615.28 215.3 608.303C213.701 603.852 209.278 600.358 209.656 597.181L210.137 596.723C211.918 597.116 214.631 600.527 215.479 602.005C219.2 608.484 221.751 618.236 221.747 625.614L219.067 625.665Z" fill="#431D0B"/>
<path d="M254.172 619.96C254.786 621.708 255.058 622.109 254.922 623.891C254.251 625.365 253.886 626.431 252.806 627.645L250.951 625.856C252.141 623.1 252.416 622.366 254.172 619.96Z" fill="#330C02"/>
<path d="M518.907 609.022C535.275 595.668 565.128 588.56 581.2 606.486C582.949 608.433 584.246 611.071 585.785 612.87C587.075 615.58 593.673 630.915 589.958 632.458C589.243 632.295 589.261 632.36 588.629 632.028C587.032 631.269 576.235 633.856 573.421 634.236C557.938 636.31 542.419 637.05 526.874 638.174C522.896 638.463 509.314 638.698 506.206 639.533C506.513 628.668 513.173 618.8 520.522 611.327C520.616 610.182 520.667 610.435 520.479 609.337L518.907 609.022Z" fill="#FEBD92"/>
<path d="M518.907 609.022C535.275 595.668 565.128 588.56 581.2 606.486C582.949 608.433 584.246 611.071 585.785 612.87C587.075 615.58 593.673 630.915 589.958 632.458C589.243 632.295 589.261 632.36 588.629 632.028C587.086 623.566 585.586 617.033 580.181 610.11C565.377 591.151 536.634 598.45 520.522 611.327C520.616 610.182 520.667 610.435 520.479 609.337L518.907 609.022Z" fill="#431D0B"/>
<path d="M238.775 442.956C238.926 442.808 239.077 442.659 239.228 442.508C243.528 442.739 251.341 443.469 255.428 443.736C275.033 444.936 294.683 445.21 314.314 444.56C321.244 444.278 327.881 443.465 334.71 443.093L335.006 443.653L335.351 443.606C336.446 443.469 336.693 443.382 337.786 443.657L338.369 444.43L338.238 444.856C337.033 445.272 336.652 445.178 335.928 446.002L336.046 446.439C332.112 448.582 325.632 450.652 321.34 452.09C297.794 459.982 272.85 464.769 247.941 463.519C244.601 463.353 237.092 463.056 234.261 461.879C235.866 455.924 237.341 449.033 238.775 442.956Z" fill="#431D0B"/>
<path d="M272.429 564.969C273.271 563.632 273.111 563.137 273.074 561.515L273.056 560.973L273.397 560.919L273.058 560.897C273.849 561.681 273.734 562.342 274.016 563.668L274.356 563.784L274.801 563.032C277.473 576.134 278.052 593.85 279.022 607.371C308.396 599.935 338.596 597.12 367.543 588.354C383.72 583.451 399.907 576.329 412.055 564.384C412.301 564.142 412.929 564.261 413.265 564.275C416.431 567.184 401.941 576.47 399.82 577.702C370.77 594.602 336.994 598.45 304.581 604.592C299.201 605.6 293.847 606.742 288.524 608.018C286.376 608.531 281.114 609.983 279.38 610.189C276.76 609.94 273.709 612.242 274.631 608.484L274.089 608.166C273.171 606.608 272.334 604.74 271.451 603.104C264.989 591.118 253.669 583.053 241.351 577.522C237.476 575.802 233.494 574.335 229.43 573.124C226.755 572.347 220.933 571.386 219.324 569.428L220.748 568.055C236.85 570.479 254.961 579.097 266.306 590.909C270.256 595.021 273.13 599.758 275.74 604.787C275.701 591.079 274.048 578.541 272.429 564.969Z" fill="#431D0B"/>
<path d="M268.399 245.595C305.736 237.391 337.028 239.248 373.057 252.373C376.103 253.587 379.113 254.878 382.094 256.242C384.869 257.512 393.699 260.743 392.066 264.242C390.408 264.032 381.537 259.115 378.932 258.011C339.924 241.47 304.48 239.566 263.685 249.634C252.713 252.269 241.942 255.682 231.456 259.848C229.76 260.533 228.549 261.017 226.792 260.053L226.715 259.467C229.238 255.498 262.57 246.98 268.399 245.595Z" fill="#340B01"/>
<path d="M452.285 381.472L483.638 369.216C486.832 367.955 501.068 361.675 503.175 362.947C503.258 364.143 503.355 363.547 502.622 364.728C500.783 365.841 490.713 369.57 488.006 370.629L452.408 384.605C450.11 385.479 446.811 386.849 444.535 387.535C443.299 386.719 439.765 388.829 437.326 389.028C437.388 387.604 444.231 386.617 446.052 384.778L445.615 384.197C447.14 383.42 450.569 382.162 452.285 381.472Z" fill="#431D0B"/>
<path d="M503.482 608.578C502.579 593.07 497.459 578.078 492.093 563.636C491.359 561.659 490.236 560.189 491.02 558.144C491.562 557.988 491.677 557.822 492.226 558.104C495.421 559.748 501.686 582.804 502.813 587.27C505.234 596.874 508.54 610.489 504.681 620.046C502.94 617.167 505.317 611.642 503.482 608.578Z" fill="#3B1000"/>
<path d="M453.756 401.616C459.346 401.128 465.029 400.467 470.641 399.94C472.274 400.182 481.882 401.103 482.565 401.392C480.194 401.923 430.349 407.173 429.077 406.931C428.766 406.87 428.535 406.61 428.264 406.447C427.791 405.201 427.747 405.764 428.159 404.691C430.634 403.452 449.315 402.31 453.756 401.616Z" fill="#330C02"/>
<path d="M518.907 609.022L520.479 609.337C520.667 610.435 520.616 610.182 520.522 611.327C513.173 618.8 506.513 628.668 506.206 639.533C505.115 640.765 505.744 640.472 504.439 640.826C503.547 640.32 503.735 640.487 502.994 639.793C503.457 638.033 503.659 635.562 504.244 633.448C507.214 622.749 511.128 616.574 518.907 609.022Z" fill="#431D0B"/>
<path d="M503.482 608.578C505.317 611.642 502.94 617.167 504.681 620.046C502.401 627.93 495.948 635.125 489.184 639.609C487.728 640.223 486.478 640.96 484.96 640.826L483.475 639.894C485.018 637.498 489.849 636.404 493.224 632.689C500.378 624.812 503.352 618.948 503.482 608.578Z" fill="#431D0B"/>
<path d="M480.707 398.556C484.36 398.328 501.56 396.312 503.326 397.045L503.699 397.674C501.906 401.258 492.129 399.896 488.461 400.948C487.735 401.154 483.32 401.45 482.565 401.392C481.882 401.103 472.274 400.182 470.641 399.94C473.889 399.365 477.416 398.979 480.707 398.556Z" fill="#431D0B"/>
<path d="M274.089 608.166L274.631 608.484C273.709 612.242 276.76 609.94 279.38 610.189C270.71 613.109 260.341 615.967 254.922 623.891C255.058 622.109 254.786 621.708 254.172 619.96C260.442 612.726 272.523 610.215 274.089 608.166Z" fill="#431D0B"/>
<path d="M268.854 544.146C267.714 540.796 263.253 522.329 264.206 519.608L264.667 519.55C267.55 522.611 269.94 535.929 270.768 540.579L270.14 540.832C270.378 542.466 271.137 545.392 270.862 546.773L270.308 547.3L270.195 546.765C269.991 545.819 269.794 544.446 269.216 543.784L268.854 544.146Z" fill="#431D0B"/>
<path d="M270.854 618.998C273.777 619.667 276.936 616.924 277.61 620.046C271.285 621.463 267.302 622.919 261.853 626.688C260.466 627.645 257.381 630.095 256.143 630.807L254.536 629.34C257.226 624.921 265.962 620.447 270.854 618.998Z" fill="#330C02"/>
<path d="M269.396 637.925C272.3 634.055 283.07 630.182 287.769 629.112C289.314 629.531 290.571 629.723 291.445 631.157C285.522 632.458 279.054 634.442 274.026 637.965C273.084 638.488 272.486 638.756 271.513 639.189C270.044 638.965 270.586 639.179 269.396 637.925Z" fill="#431D0B"/>
<path d="M268.854 544.146L269.216 543.784C269.794 544.446 269.991 545.819 270.195 546.765L270.308 547.3L270.862 546.773C271.137 545.392 270.378 542.466 270.14 540.832L270.768 540.579C271.861 544.2 274.401 558.819 274.801 563.032L274.356 563.784L274.016 563.668C273.734 562.342 273.849 561.681 273.058 560.897L273.397 560.919L273.056 560.973L273.074 561.515C273.111 563.137 273.271 563.632 272.429 564.969C271.344 558.454 269.641 550.527 268.854 544.146Z" fill="#330C02"/>
<path d="M437.955 313.123C439.371 314.836 440.968 317.158 442.284 318.656C442.052 321.328 441.192 325.145 441.106 327.475L440.752 327.804C439.765 326.809 435.986 316.782 435.191 314.726C435.552 314.298 435.859 313.931 436.199 313.482L436.466 313.124L437.955 313.123Z" fill="#431D0B"/>
<path d="M445.615 384.197L446.052 384.778C444.231 386.617 437.388 387.604 437.326 389.028C439.765 388.829 443.299 386.719 444.535 387.535C441.601 388.97 429.092 394.816 426.703 392.778L427.014 392.052C429.894 389.707 441.503 385.747 445.615 384.197Z" fill="#330C02"/>
<path d="M270.854 618.998C274.041 617.911 283.137 615.324 285.803 617.878C284.69 619.689 279.722 619.811 277.61 620.046C276.936 616.924 273.777 619.667 270.854 618.998Z" fill="#190502"/>
<path d="M178.403 363.268C180.358 363.807 182.613 364.233 184.217 365.368C184.847 366.484 184.753 365.899 184.432 367.2C182.573 368.36 175.429 365.285 172.994 364.41C175.291 363.886 176.442 365.563 178.405 364.566L178.06 363.753L178.403 363.268Z" fill="#330C02"/>
<path d="M349.157 440.578C346.588 442.081 338.814 445.608 336.046 446.439L335.928 446.002C336.652 445.178 337.033 445.272 338.238 444.856L338.369 444.43L337.786 443.657C336.693 443.382 336.446 443.469 335.351 443.606L335.006 443.653L334.71 443.093C339.767 442.367 344.168 441.753 349.157 440.578Z" fill="#330C02"/>
<path d="M435.191 314.726C433.529 310.506 431.708 306.333 430.132 302.083C432.712 305.783 435.317 309.463 437.955 313.123L436.466 313.124L436.199 313.482C435.859 313.931 435.552 314.298 435.191 314.726Z" fill="#431D0B"/>
<path d="M287.769 629.112C290.705 628.425 294.363 627.179 297.097 628.855L297.137 629.441C295.333 630.969 293.762 630.904 291.445 631.157C290.571 629.723 289.314 629.531 287.769 629.112Z" fill="#190502"/>
<path id="eye-l" d="M233.8 341.61C242.192 340.434 249.961 346.249 251.196 354.633C252.432 363.015 246.671 370.824 238.296 372.121C229.838 373.425 221.934 367.597 220.686 359.129C219.439 350.662 225.325 342.798 233.8 341.61Z" fill="#431D0B"/>
<path id="eye-r" d="M354.373 346.316C362.81 345.378 370.416 351.438 371.387 359.87C372.356 368.302 366.325 375.933 357.898 376.938C349.423 377.946 341.742 371.875 340.766 363.395C339.79 354.917 345.89 347.259 354.373 346.316Z" fill="#431D0B"/>
<path id="cat-mouth-a" d="M291.009 378.914C289.065 376.255 284.834 372.168 284.43 369.512C285.378 366.502 289.366 367.771 292.188 367.669C308.856 367.08 301.18 372.862 294.127 379.832C295.209 383.622 296.152 385.313 297.82 388.843C297.996 389.891 298.067 390.328 298.378 391.369C297.666 391.828 297.501 391.915 296.722 392.251C294.825 390.657 293.186 387.102 292.134 384.861C289.058 390.336 284.394 396.633 277.891 390.946C275.472 388.829 271.813 382.975 271.636 379.785C272.078 378.777 271.721 379.131 272.76 378.708C276.175 379.691 282.48 402.476 290.836 379.398L291.009 378.914Z" fill="#431D0B"/>
<path d="M428.517 415.394C432.307 415.549 437.568 416.882 441.362 417.663C459.902 421.478 478.449 425.276 497.029 428.9C497.729 429.037 497.95 429.178 498.51 429.601C498.9 430.887 498.738 430.566 498.25 432.116C494.702 431.639 488.815 430.248 485.173 429.507L457.499 423.841L439.765 420.326C437.124 419.805 430.956 418.711 428.748 417.786C428.087 416.633 428.289 417.016 428.517 415.394Z" fill="#330C02"/>
<path id="cat-mouth-b" d="M297.82 388.843C303.443 394.549 310.09 381.996 314.626 381.88C315.481 382.719 315.241 382.213 315.285 383.481C313.375 387.911 301.494 396.944 296.722 392.251C297.501 391.915 297.666 391.828 298.378 391.369C298.067 390.328 297.996 389.891 297.82 388.843Z" fill="#431D0B"/>
<path d="M123.444 378.271C120.376 378.314 110.447 378.719 108.792 376.287L109.017 375.398C110.583 374.372 126.203 375.46 129.019 375.731C140.601 375.564 156.387 376.945 168.458 377.367L168.766 377.407C172.505 377.83 183.278 376.63 184.726 379.535C183.747 382.206 169.346 379.958 165.93 380.222C151.773 379.47 137.61 378.82 123.444 378.271Z" fill="#330C02"/>
<path d="M123.444 378.271C120.376 378.314 110.447 378.719 108.792 376.287L109.017 375.398C110.583 374.372 126.203 375.46 129.019 375.731C125.518 376.106 120.71 375.084 118.066 376.937C120.387 377.259 121.235 377.31 123.444 378.271Z" fill="#431D0B"/>
<path d="M170.959 363.789C157.366 359.586 143.478 354.869 129.913 350.449C125.409 348.993 120.913 347.513 116.425 346.009C113.978 345.215 108.273 344.207 107.314 341.571L107.685 340.963C110.149 340.295 126.761 346.312 130.305 347.47L171.33 360.911C172.989 361.437 177.006 362.611 178.403 363.268L178.06 363.753L178.405 364.566C176.442 365.563 175.291 363.886 172.994 364.41L170.959 363.789Z" fill="#431D0B"/>
<path d="M171.076 392.507C173.965 391.691 182.252 388.887 184.54 389.902C185.029 390.758 184.921 390.31 184.729 391.304C182.99 392.778 174.683 394.513 172.071 395.145C155.248 400.388 136.963 403.781 120.025 408.962C118.441 409.446 116.775 410.021 115.45 409.013C115.192 407.806 115.097 408.355 115.715 407.311C118.032 405.826 164.505 394.162 171.076 392.507Z" fill="#431D0B"/>
</svg>